<?xml version="1.0" standalone="no"?>
<svg xmlns="http://www.w3.org/2000/svg" viewBox="0 0 79 66" width="79" height="66"><g fill="#066163" color="#066163" transform="translate(19.894 0) scale(0.8510639) "><svg width="46.0" height="47.0" x="0.0" y="0.0" viewBox="0 0 46 47"><path fill="currentColor" fill-rule="evenodd" d="M29.368 34c-.357-2.817-1.256-5.625-2.664-8.333C31.446 17.977 37.79 10.85 40.967 7.88c.424-.391.43-1.048.026-1.452a1.09 1.09 0 0 0-1.5-.03c-3.121 2.922-9.208 9.727-13.978 17.191a32.399 32.399 0 0 0-3.317-4.38A33.66 33.66 0 0 0 21 17.944C25.495 9.464 34.858 2.943 43.85 2c.536 7.76.436 28.055-14.482 32M45.735.954c1.633 19.467-4.343 32.71-16.014 35.665.025.822.004 1.645-.062 2.464-.05.567-.53.977-1.122.948-.575-.047-1-.553-.954-1.12.333-4.033-.589-8.19-2.623-12.13a1.005 1.005 0 0 1-.247-.483 30.13 30.13 0 0 0-3.759-5.38 31.99 31.99 0 0 0-1.392-1.493 1.041 1.041 0 0 1-.404-.408c-4.85-4.747-11.072-7.914-16.908-8.55-.828 11.951 1.479 22.016 6.387 27.727 2.99 3.476 6.928 5.405 11.703 5.73a1.04 1.04 0 0 1 .966 1.107 1.026 1.026 0 0 1-1.03.969c-.023 0-.044 0-.072-.004-5.349-.37-9.77-2.54-13.139-6.452C1.572 33.16-.84 22.404.261 9.257c.044-.56.5-1.026 1.095-.948 6.283.368 13.073 3.535 18.444 8.463C24.812 7.532 35.028.567 44.637.004c.553-.053 1.051.392 1.098.95zM5.766 14.286C11 19.306 23.355 34.181 25.975 45.738a1.046 1.046 0 0 1-.789 1.24 1.224 1.224 0 0 1-.23.022c-.475 0-.906-.327-1.013-.807C21.427 35.089 9.413 20.652 4.32 15.776a1.026 1.026 0 0 1-.027-1.46c.4-.41 1.064-.421 1.474-.03z"></path></svg></g><path fill="#b7af8a" fill-rule="nonzero" d="M7.85 16.97L0.10 16.97Q0 16.97 0 16.85L0 16.85L0.02 0.38Q0.02 0.26 0.14 0.26L0.14 0.26L2.81 0.26Q2.93 0.26 2.93 0.38L2.93 0.38L2.90 14.02L7.85 14.02Q7.97 14.02 7.97 14.14L7.97 14.14L7.97 16.85Q7.97 16.97 7.85 16.97L7.85 16.97ZM13.63 17.21L13.63 17.21Q12.34 17.21 11.27 16.55Q10.20 15.89 9.55 14.80Q8.90 13.70 8.90 12.38L8.90 12.38L8.93 4.78Q8.93 3.46 9.56 2.38Q10.20 1.30 11.28 0.65Q12.36 0 13.63 0L13.63 0Q14.93 0 15.98 0.65Q17.04 1.30 17.68 2.38Q18.31 3.46 18.31 4.78L18.31 4.78L18.34 12.38Q18.34 13.70 17.70 14.80Q17.06 15.89 16.00 16.55Q14.93 17.21 13.63 17.21ZM13.63 14.30L13.63 14.30Q14.35 14.30 14.89 13.72Q15.43 13.13 15.43 12.38L15.43 12.38L15.41 4.78Q15.41 3.98 14.90 3.43Q14.40 2.88 13.63 2.88L13.63 2.88Q12.89 2.88 12.36 3.42Q11.83 3.96 11.83 4.78L11.83 4.78L11.83 12.38Q11.83 13.18 12.36 13.74Q12.89 14.30 13.63 14.30ZM24.55 17.21L24.55 17.21Q23.26 17.21 22.20 16.56Q21.14 15.91 20.51 14.82Q19.87 13.73 19.87 12.38L19.87 12.38L19.87 4.78Q19.87 3.48 20.51 2.39Q21.14 1.30 22.21 0.65Q23.28 0 24.55 0L24.55 0Q25.87 0 26.94 0.64Q28.01 1.27 28.63 2.35Q29.26 3.43 29.26 4.78L29.26 4.78L29.26 5.88Q29.26 5.98 29.14 5.98L29.14 5.98L26.45 5.98Q26.35 5.98 26.35 5.88L26.35 5.88L26.35 4.97Q26.35 4.06 25.84 3.46Q25.32 2.86 24.55 2.86L24.55 2.86Q23.86 2.86 23.32 3.43Q22.78 4.01 22.78 4.78L22.78 4.78L22.78 12.38Q22.78 13.18 23.30 13.74Q23.83 14.30 24.55 14.30L24.55 14.30Q25.32 14.30 25.84 13.75Q26.35 13.20 26.35 12.38L26.35 12.38L26.35 11.21L24.67 11.21Q24.55 11.21 24.55 11.09L24.55 11.09L24.55 8.40Q24.55 8.28 24.67 8.28L24.67 8.28L29.16 8.28Q29.26 8.28 29.26 8.40L29.26 8.40L29.26 12.38Q29.26 13.73 28.62 14.82Q27.98 15.91 26.93 16.56Q25.87 17.21 24.55 17.21ZM33.79 16.97L31.08 16.97Q30.96 16.97 30.96 16.85L30.96 16.85L30.98 0.36Q30.98 0.26 31.08 0.26L31.08 0.26L33.77 0.26Q33.86 0.26 33.86 0.36L33.86 0.36L33.89 16.85Q33.89 16.97 33.79 16.97L33.79 16.97ZM40.42 17.21L40.42 17.21Q39.10 17.21 38.03 16.55Q36.96 15.89 36.34 14.78Q35.71 13.68 35.71 12.31L35.71 12.31L35.74 4.82Q35.74 3.50 36.35 2.41Q36.96 1.32 38.03 0.66Q39.10 0 40.42 0L40.42 0Q41.74 0 42.79 0.65Q43.85 1.30 44.47 2.39Q45.10 3.48 45.10 4.82L45.10 4.82L45.10 5.93Q45.10 6.02 45.00 6.02L45.00 6.02L42.31 6.02Q42.22 6.02 42.22 5.93L42.22 5.93L42.22 4.82Q42.22 4.03 41.70 3.46Q41.18 2.88 40.42 2.88L40.42 2.88Q39.55 2.88 39.10 3.47Q38.64 4.06 38.64 4.82L38.64 4.82L38.64 12.31Q38.64 13.20 39.16 13.75Q39.67 14.30 40.42 14.30L40.42 14.30Q41.18 14.30 41.70 13.69Q42.22 13.08 42.22 12.31L42.22 12.31L42.22 11.21Q42.22 11.11 42.31 11.11L42.31 11.11L45.02 11.11Q45.12 11.11 45.12 11.21L45.12 11.21L45.12 12.31Q45.12 13.68 44.48 14.78Q43.85 15.89 42.79 16.55Q41.74 17.21 40.42 17.21ZM51.31 17.21L51.31 17.21Q50.02 17.21 48.95 16.55Q47.88 15.89 47.23 14.80Q46.58 13.70 46.58 12.38L46.58 12.38L46.61 4.78Q46.61 3.46 47.24 2.38Q47.88 1.30 48.96 0.65Q50.04 0 51.31 0L51.31 0Q52.61 0 53.66 0.65Q54.72 1.30 55.36 2.38Q55.99 3.46 55.99 4.78L55.99 4.78L56.02 12.38Q56.02 13.70 55.38 14.80Q54.74 15.89 53.68 16.55Q52.61 17.21 51.31 17.21ZM51.31 14.30L51.31 14.30Q52.03 14.30 52.57 13.72Q53.11 13.13 53.11 12.38L53.11 12.38L53.09 4.78Q53.09 3.98 52.58 3.43Q52.08 2.88 51.31 2.88L51.31 2.88Q50.57 2.88 50.04 3.42Q49.51 3.96 49.51 4.78L49.51 4.78L49.51 12.38Q49.51 13.18 50.04 13.74Q50.57 14.30 51.31 14.30ZM60.65 16.97L57.94 16.97Q57.84 16.97 57.84 16.85L57.84 16.85L57.89 0.36Q57.89 0.26 57.98 0.26L57.98 0.26L62.83 0.26Q64.13 0.26 65.22 0.90Q66.31 1.54 66.96 2.60Q67.61 3.67 67.61 5.02L67.61 5.02Q67.61 5.90 67.34 6.61Q67.08 7.32 66.72 7.81Q66.36 8.30 66.07 8.54L66.07 8.54Q67.37 9.98 67.37 11.93L67.37 11.93L67.39 16.85Q67.39 16.97 67.27 16.97L67.27 16.97L64.56 16.97Q64.46 16.97 64.46 16.90L64.46 16.90L64.46 11.93Q64.46 11.06 63.85 10.43Q63.24 9.79 62.35 9.79L62.35 9.79L60.77 9.79L60.74 16.85Q60.74 16.97 60.65 16.97L60.65 16.97ZM60.77 3.14L60.77 6.91L62.83 6.91Q63.58 6.91 64.15 6.36Q64.73 5.81 64.73 5.02L64.73 5.02Q64.73 4.25 64.16 3.70Q63.60 3.14 62.83 3.14L62.83 3.14L60.77 3.14ZM72.22 16.97L69.53 16.97Q69.41 16.97 69.41 16.85L69.41 16.85L69.46 0.36Q69.46 0.26 69.55 0.26L69.55 0.26L74.16 0.26Q76.37 0.26 77.65 1.61Q78.94 2.95 78.94 5.26L78.94 5.26Q78.94 6.96 78.26 8.21Q77.59 9.46 76.51 10.13Q75.43 10.80 74.16 10.80L74.16 10.80L72.34 10.80L72.34 16.85Q72.34 16.97 72.22 16.97L72.22 16.97ZM72.34 3.14L72.34 7.90L74.16 7.90Q74.93 7.90 75.49 7.16Q76.06 6.43 76.06 5.26L76.06 5.26Q76.06 4.32 75.55 3.72Q75.05 3.12 74.16 3.12L74.16 3.12L72.34 3.14Z" transform="translate(0, 48)"></path></svg>